<svg preserveAspectRatio="none" width="100%" height="100%" overflow="visible" style="display: block;" viewBox="0 0 110 110" fill="none" xmlns="http://www.w3.org/2000/svg">
<g id="Icon">
<rect width="110" height="110" rx="55" fill="var(--fill-0, #FEEAF1)"/>
<g id="Vector">
<path d="M87.9965 45.4728C87.9965 43.3407 86.3776 41.7949 84.2616 41.7949H52.2682C50.161 41.7949 48.5333 43.3442 48.5333 45.4728L48.5508 85.0803C48.5508 86.853 49.8967 87.9277 51.3616 88.5C64.5243 88.5 71.904 88.5 85.0667 88.5C86.7644 87.987 88 86.7186 88 84.8133L87.9965 45.4728ZM86.0275 84.8116C86.0275 85.684 85.457 86.5249 84.4506 86.5249L52.2717 86.5406C51.2321 86.5406 50.5075 85.855 50.5075 84.8133V45.4711C50.5075 44.5115 51.1796 43.7699 52.1509 43.7699H84.3806C85.352 43.7699 86.0275 44.5132 86.0275 45.4728V84.8116Z" fill="var(--fill-0, #FB64B6)"/>
<path d="M40.7012 71.3736L32.9619 71.3806C32.3703 71.3806 31.987 71.8551 31.9835 72.3402C31.98 72.8566 32.3511 73.3329 32.9531 73.3329L40.696 73.3382C41.6638 73.3382 42.4111 74.0395 42.4111 75.0236V84.8343C42.4111 85.8148 41.6866 86.5372 40.6925 86.5372L25.6164 86.5284C24.6538 86.5284 23.9887 85.7538 23.9887 84.8325V75.0253C23.9887 74.0919 24.6748 73.3521 25.6006 73.3469L28.3677 73.3312C28.961 73.3277 29.3373 72.8671 29.332 72.3384C29.3268 71.8499 28.9452 71.3823 28.3589 71.3806H25.5971C23.5879 71.3753 22.0145 73.0014 22.0197 75.0236L22.0425 85.096C22.046 86.8373 23.3551 87.9347 24.848 88.4983H41.3575C43.0937 88.0708 44.3889 86.7308 44.3871 84.8325L44.3836 75.0236C44.3836 72.9578 42.7682 71.3718 40.7012 71.3736Z" fill="#FB64B6"/>
<path d="M24.1042 30.8117C25.3328 31.377 26.5755 31.2078 27.6466 30.5936C28.6897 29.9969 29.346 28.9832 29.3425 27.7706L29.3285 22.3322C29.3285 21.9414 28.926 21.7565 28.7544 21.5017H27.9669C27.7726 21.753 27.4033 21.9397 27.398 22.334L27.3053 28.055C27.293 28.7913 26.2814 29.1699 25.6706 29.1821C25.0616 29.1943 24.0639 28.7895 24.0517 28.055L23.9589 22.3096C23.9519 21.9118 23.5651 21.7512 23.3744 21.5017H22.5868C22.1527 21.8734 21.99 22.3165 22.0005 22.9446L22.0827 28.3097C22.102 29.5293 23.2274 30.4087 24.1059 30.8117H24.1042Z" fill="var(--fill-0, #FB64B6)"/>
<path d="M43.5068 28.2766C43.596 29.4927 44.6339 30.3877 45.5037 30.7995C46.7254 31.377 47.9732 31.213 49.0444 30.6128C50.147 29.9952 50.784 28.9291 50.7788 27.6572L50.7543 22.3357C50.7525 21.9275 50.3465 21.753 50.1487 21.5035H49.4924C49.0339 21.7704 48.8046 22.0967 48.7958 22.6812C48.7696 24.473 48.8851 26.2195 48.7486 28.0114C48.6908 28.7773 47.7177 29.1804 47.0649 29.1839C46.4558 29.1874 45.53 28.7704 45.4722 28.0393C45.3322 26.2823 45.4425 24.569 45.425 22.8138C45.4197 22.2066 45.2482 21.8123 44.7669 21.5052H44.1106C43.9251 21.7408 43.4543 21.8943 43.4578 22.3078C43.4735 24.3125 43.358 26.2771 43.505 28.2783L43.5068 28.2766Z" fill="var(--fill-0, #FB64B6)"/>
<path d="M52.3102 30.9426C52.7127 31.2531 53.3446 31.2252 53.6736 30.7698L55.8141 27.802L57.8793 30.6843C58.2346 31.1799 58.8524 31.288 59.3092 30.953C59.815 30.5831 59.78 29.9411 59.4125 29.4211L57.0375 26.0643L59.0519 23.1872C59.2724 22.8731 59.3757 22.5783 59.2689 22.1543C59.2077 21.917 58.9119 21.7321 58.6826 21.5017H58.0263C57.9406 21.6483 57.7148 21.6937 57.594 21.8612L55.8088 24.3038L54.1374 21.9746C53.9974 21.7792 53.7996 21.6692 53.6964 21.5H52.9088C52.5745 21.8228 52.0564 22.3148 52.3925 22.8138L54.5907 26.0695L52.1177 29.5939C51.7904 30.0597 51.9147 30.6355 52.312 30.9426H52.3102Z" fill="var(--fill-0, #FB64B6)"/>
<path d="M36.562 31.0542C37.0223 31.2653 37.6349 31.1153 37.8694 30.564L41.0688 23.0755C41.3593 22.3968 41.1458 21.8734 40.57 21.5017H39.9136L39.4113 21.9432L36.0667 29.8067C35.8462 30.3232 36.1297 30.8553 36.562 31.0542Z" fill="var(--fill-0, #FB64B6)"/>
<path d="M32.4858 31.1432C33.0056 31.1362 33.4607 30.7262 33.4589 30.126L33.4537 22.4212C33.4537 21.9571 33.0757 21.7635 32.8236 21.5017H32.1673C31.6668 21.7914 31.476 22.1874 31.4777 22.8138L31.4952 30.1365C31.4952 30.7454 31.952 31.1484 32.4858 31.1432Z" fill="var(--fill-0, #FB64B6)"/>
<path d="M80.0717 23.4733L87.0357 23.482C87.5817 23.482 87.9107 23.0633 87.9825 22.6236C88.0683 22.1089 87.7007 21.7984 87.2982 21.5H79.8161C79.4958 21.8036 79.1493 22.0653 79.1721 22.4997C79.1948 22.9673 79.5098 23.4716 80.0717 23.4733Z" fill="var(--fill-0, #FB64B6)"/>
<path d="M40.8272 41.8106L25.6076 41.8054C23.5651 41.8054 22.0162 43.4541 22.018 45.4414L22.0232 49.6428C22.0232 50.2412 22.4835 50.6477 23.0296 50.6355C23.5249 50.625 23.9834 50.2185 23.9834 49.6323L23.9887 45.4414C23.9887 44.5394 24.6573 43.7717 25.6129 43.7699L40.6907 43.7612C41.6743 43.7612 42.4129 44.4556 42.4129 45.4571C42.4108 52.296 42.4097 56.1303 42.4076 62.9691C42.4076 63.9357 41.6428 64.6127 40.6907 64.6109L25.5411 64.5917C24.6065 64.5917 23.9974 63.7787 23.9957 62.9848L23.9887 54.3466C23.9887 53.7132 23.5704 53.284 23.0348 53.2736C22.4328 53.2596 22.0145 53.7063 22.0145 54.3448L22.0232 62.9813C22.025 65.0018 23.6421 66.5755 25.6671 66.5755L40.7642 66.5703C42.8557 66.5703 44.3906 64.911 44.3889 62.8418L44.3819 45.4519C44.3819 43.4559 42.8539 41.8106 40.8272 41.8088V41.8106Z" fill="var(--fill-0, #FB64B6)"/>
<path d="M86.8711 35.4859H23.1433C22.4398 35.4859 22.032 35.868 22.032 36.4874C22.032 36.927 22.3733 37.447 23.0156 37.447H87.0006C87.6885 37.447 88.035 36.8607 87.979 36.36C87.9177 35.8156 87.5292 35.4841 86.8729 35.4841L86.8711 35.4859Z" fill="var(--fill-0, #FB64B6)"/>
<path d="M27.8548 79.9316C27.8513 80.4724 28.2714 80.9191 28.8875 80.9191H37.6156C38.2737 80.8371 38.5992 80.3363 38.538 79.8251C38.4837 79.361 38.1039 78.958 37.5491 78.958H28.8892C28.2661 78.9562 27.8583 79.4011 27.8548 79.9298V79.9316Z" fill="var(--fill-0, #FB64B6)"/>
<path d="M87.9842 30.0789C87.958 29.6183 87.58 29.1647 87.0111 29.1664L80.1329 29.1699C79.5326 29.1699 79.1563 29.6863 79.1791 30.1976C79.2018 30.7105 79.6201 31.131 80.2204 31.1293L87.0637 31.1136C87.6885 31.1136 88.0123 30.557 87.986 30.0789H87.9842Z" fill="var(--fill-0, #FB64B6)"/>
<path d="M80.1329 27.3048L87.0357 27.2995C87.713 27.2995 88.0525 26.6924 87.9737 26.1602C87.9002 25.6769 87.4872 25.3402 86.9044 25.3402L80.2204 25.3437C79.6166 25.3437 79.1983 25.7519 79.1773 26.2841C79.1581 26.7831 79.5344 27.303 80.1329 27.303V27.3048Z" fill="var(--fill-0, #FB64B6)"/>
<path d="M38.538 49.9289C39.2293 49.9289 39.5811 49.3601 39.5041 48.8053C39.4411 48.3482 39.0403 47.973 38.4697 47.973L33.2227 47.9765C32.6294 47.9765 32.2181 48.4284 32.2093 48.9309C32.1988 49.4683 32.6084 49.9341 33.2157 49.9341L38.5397 49.9271L38.538 49.9289Z" fill="var(--fill-0, #FB64B6)"/>
<path d="M38.4697 58.4345L33.2244 58.438C32.6259 58.438 32.2163 58.8777 32.2076 59.4011C32.1988 59.9228 32.6049 60.3956 33.2104 60.3956L38.5397 60.3904C39.2276 60.3904 39.5741 59.8111 39.5058 59.2755C39.4446 58.8027 39.0403 58.4363 38.4697 58.4363V58.4345Z" fill="var(--fill-0, #FB64B6)"/>
<path d="M38.4732 55.1649C39.0963 55.1649 39.5268 54.7322 39.5163 54.1582C39.5076 53.6417 39.0893 53.2003 38.4697 53.2003L33.2227 53.2055C32.6276 53.2055 32.2128 53.6609 32.2076 54.1634C32.2006 54.706 32.6066 55.1596 33.2139 55.1614L38.4732 55.1649Z" fill="var(--fill-0, #FB64B6)"/>
<path d="M26.9097 54.4077C27.0253 54.9625 27.5206 55.1753 28.0981 55.1823C28.6984 55.1876 29.2427 55.0061 29.3705 54.4024C29.4615 53.975 29.2672 53.3887 28.6582 53.2509C28.2906 53.1671 27.9249 53.1794 27.6133 53.2509C27.0428 53.3817 26.8117 53.9366 26.9097 54.4077Z" fill="var(--fill-0, #FB64B6)"/>
<path d="M28.6582 58.4816C28.2924 58.4014 27.9266 58.4101 27.6186 58.4781C27.0445 58.6055 26.81 59.1586 26.908 59.6384C27.0218 60.188 27.5153 60.4061 28.0964 60.4131C28.6949 60.42 29.241 60.2316 29.367 59.6349C29.458 59.2057 29.2655 58.6177 28.6564 58.4816H28.6582Z" fill="var(--fill-0, #FB64B6)"/>
<path d="M28.0964 49.9516C28.6617 49.9603 29.178 49.805 29.3425 49.2694C29.4773 48.8314 29.3303 48.2225 28.7247 48.0446C28.3204 47.9259 27.8723 47.9381 27.5206 48.0498C26.9623 48.2278 26.789 48.8157 26.9378 49.2851C27.0883 49.7666 27.5591 49.9429 28.0964 49.9516Z" fill="var(--fill-0, #FB64B6)"/>
<path d="M58.9049 57.8657C59.4737 58.0193 60.0075 57.7419 60.165 57.1417C61.2607 52.977 65.2808 50.3459 69.5478 50.9897C73.6152 51.6039 76.7008 55.1963 76.6343 59.3662C76.5695 63.4768 73.4174 67.0012 69.308 67.5037C65.1286 68.0149 61.2046 65.3926 60.13 61.2244C59.969 60.598 59.2794 60.4515 58.8629 60.6067C58.3694 60.7899 58.1173 61.2732 58.2661 61.8385C59.6155 66.9471 64.5598 70.1767 69.7718 69.4247C74.8263 68.6954 78.6488 64.2899 78.605 59.1394C78.563 54.0099 74.6636 49.6201 69.5163 49.0024C64.4127 48.39 59.5612 51.6039 58.2573 56.6566C58.1103 57.2237 58.4306 57.7384 58.9014 57.8657H58.9049Z" fill="#FB64B6"/>
<path d="M76.8671 73.5754L59.6067 73.5807C57.3035 73.5807 55.597 75.5522 55.6321 77.7C55.6688 79.9019 57.4347 81.7164 59.7397 81.7164H76.7883C79.0933 81.7164 80.8662 79.9036 80.8995 77.7018C80.931 75.5487 79.2421 73.5754 76.8671 73.5754ZM76.8601 79.7449L59.7397 79.7553C58.5181 79.7553 57.6378 78.8114 57.6028 77.7018C57.5695 76.6392 58.3921 75.5418 59.6085 75.5418H76.9178C78.0834 75.5418 78.8973 76.5642 78.9253 77.5727C78.955 78.6579 78.143 79.7449 76.8583 79.7449H76.8601Z" fill="var(--fill-0, #FB64B6)"/>
</g>
</g>
</svg>
