<?xml version="1.0" encoding="UTF-8"?>
<svg id="Layer_1" xmlns="http://www.w3.org/2000/svg" viewBox="0 0 634.82 123.44">
  <defs>
    <style>
      .cls-1 {
        fill: none;
      }

      .cls-2, .cls-3 {
        fill: #e77fb2;
      }

      .cls-2, .cls-4 {
        stroke: #e57fb2;
        stroke-miterlimit: 10;
        stroke-width: .71px;
      }

      .cls-5 {
        fill: #4b4b7f;
      }

      .cls-6, .cls-4 {
        fill: #fff;
      }
    </style>
  </defs>
  <g>
    <path class="cls-2" d="M82.19,50.5c0,27.28-22.11,49.41-49.41,49.41-8.59,0-16.68-2.19-23.71-6.06-.95-.51-1.88-1.06-2.78-1.62v-.28s2.34-47.7,2.34-47.7c.03-.41.42-.72.83-.62l1.75.37s4.36.86,11.57-1.12c5.9-1.62,7.87-3.94,8.19-4.39l-4.53-2.89c-3.74-2.37-4.84-7.34-2.47-11.07,1.98-3.12,5.76-4.39,9.12-3.36.04-.08.08-.18.14-.27L44.88,2.57c1.53.38,3.01.83,4.46,1.36,7.98,2.82,15,7.65,20.48,13.87,1.05,1.19,2.03,2.41,2.97,3.69,5.92,8.15,9.4,18.17,9.4,29.02Z"/>
    <g>
      <path class="cls-1" d="M28.84,31.81l25.26,16.07c1.65,1.05,3.84.56,4.89-1.09s.56-3.84-1.09-4.89l-25.26-16.07c-1.65-1.05-3.84-.56-4.89,1.09s-.56,3.84,1.09,4.89Z"/>
      <ellipse class="cls-1" cx="28.04" cy="61.41" rx="3.17" ry="3.05" transform="translate(-38.83 52.11) rotate(-57.54)"/>
      <g>
        <path class="cls-4" d="M61.66,38.98l11.13-17.5c-.93-1.27-1.92-2.5-2.97-3.69l-11.95,18.78-20.86-13.27L49.34,3.93c-1.45-.52-2.94-.97-4.46-1.36l-11.65,18.32c-.06.08-.1.18-.14.27-3.36-1.03-7.15.24-9.12,3.36-2.37,3.73-1.27,8.7,2.47,11.07l4.53,2.89,3.33,2.1,9.55,6.09,3.3,2.1,4.53,2.88c3.74,2.37,8.71,1.27,11.09-2.47,2.08-3.28,1.48-7.5-1.21-10.08.03-.04.07-.08.1-.13ZM58.99,46.79c-1.04,1.65-3.25,2.13-4.89,1.09l-25.26-16.07c-1.65-1.04-2.13-3.23-1.09-4.89,1.04-1.65,3.23-2.13,4.89-1.09l25.26,16.07c1.65,1.04,2.13,3.23,1.09,4.89Z"/>
        <path class="cls-4" d="M32,55.19c-3.3-2.09-7.75-1-9.94,2.43-1.69,2.67-1.53,5.99.2,8.32.17.23.17.54.01.78l-10.1,15.87c-.37.59-1.29.3-1.24-.4l1.61-33.02c.01-.37.32-.65.69-.65,2.32.03,5.82-.24,10.25-1.45,6.82-1.89,9.67-4.77,10.68-6.09.1-.13.14-.25.14-.4,0-.24-.14-.49-.38-.62l-2.92-1.5s-.01,0-.03.01c-.32.45-2.29,2.77-8.19,4.39-7.2,1.98-11.54,1.13-11.57,1.12l-1.75-.37c-.41-.1-.8.21-.83.62l-2.33,47.7v.28s-.03.54-.03.54c0,.24.11.47.32.59l1.21.78c.2.13.47.14.68.03l.58-.31,21.31-11.27c.47-.24.49-.89.04-1.17l-2.7-1.72c-.21-.13-.47-.14-.68-.03l-10.13,5.35c-.61.32-1.26-.38-.89-.96l9.64-15.17c.16-.24.44-.38.72-.32,2.84.58,5.92-.68,7.63-3.35,2.17-3.43,1.27-7.92-2.02-10.03ZM30.62,63.06c-.78,1.21-2.23,1.75-3.52,1.38-.27-.07-.52-.18-.76-.34-.23-.14-.42-.31-.59-.49-.1-.11-.2-.24-.27-.37-.06-.06-.1-.13-.13-.2-.1-.16-.17-.31-.21-.47-.06-.16-.1-.31-.13-.47,0-.01-.01-.03,0-.04-.04-.16-.06-.32-.06-.49-.01-.62.16-1.24.51-1.79.95-1.48,2.87-1.95,4.28-1.04,1.43.9,1.81,2.84.88,4.32Z"/>
        <path class="cls-6" d="M50.55,69.02s-2.63-3.6-3.89-10.96c-1.14-6.69.52-9.36.54-9.38-.03.05-.05.07-.05.07l-2.59-2.01c-.33-.26-.82-.16-1.02.21-.77,1.47-2.17,5.28-.99,12.24.77,4.54,2.02,7.82,3.02,9.91.16.33.03.72-.3.89l-8.4,4.44c-.46.24-.49.9-.05,1.18l2.7,1.72c.21.13.47.14.68.03l9.44-4.99,1.72-.92c.37-.2.47-.67.23-1.01l-1.07-1.43Z"/>
        <path class="cls-6" d="M31.74,77.48c-.53.84-.29,1.95.55,2.49.84.53,1.95.29,2.49-.55s.29-1.95-.55-2.49c-.84-.53-1.95-.29-2.49.55Z"/>
      </g>
    </g>
  </g>
  <g>
    <path class="cls-5" d="M78.12,5.02h36.5c9.91,0,17.94,2.01,24.59,6.9,6.65,4.89,10.79,12.42,10.79,22.2,0,11.54-5.77,20.32-15.43,25.09l22.83,36.63h-28.73l-18.94-32.62h-6.02v32.62h-25.59V5.02ZM111.99,44.78c4.52,0,7.02-.63,9.16-2.13,2.13-1.51,3.26-4.27,3.26-7.4s-1.13-6.02-3.26-7.53c-2.13-1.51-4.64-2.13-9.16-2.13h-8.28v19.19h8.28Z"/>
    <path class="cls-5" d="M143.1,64.48c0-18.44,14.93-32.74,35.63-32.74s35.63,14.3,35.63,32.74-14.93,32.74-35.63,32.74-35.63-14.3-35.63-32.74ZM189.76,64.48c0-6.77-4.64-12.04-11.04-12.04s-11.04,5.27-11.04,12.04,4.64,12.04,11.04,12.04,11.04-5.27,11.04-12.04Z"/>
    <path class="cls-5" d="M251.23,92.7l-.25-.13c-4.14,3.14-9.53,4.64-14.8,4.64-14.8,0-28.22-11.92-28.22-31.36s14.43-34.12,32.49-34.12c3.64,0,7.15.75,10.04,1.88l.25-.12V0h24.84v95.84h-24.34v-3.14ZM250.73,76.14v-22.83c-1.76-.88-3.64-1.38-6.27-1.38-8.03,0-11.42,6.15-11.42,12.92,0,7.53,3.64,13.17,10.79,13.17,2.76,0,5.14-.88,6.9-1.88Z"/>
    <path class="cls-5" d="M293.87,5.02h35.63c15.05,0,27.22,4.77,35.63,13.05,8.4,8.28,13.05,19.32,13.05,32.36,0,12.29-4.14,23.58-12.54,31.99s-20.32,13.42-36,13.42h-35.75V5.02ZM345.81,67.49c4.27-4.14,6.52-10.29,6.52-17.06s-2.26-12.92-6.52-17.06-9.78-6.52-16.56-6.52h-9.53v47.17h9.53c6.77,0,12.29-2.38,16.56-6.52Z"/>
    <path class="cls-5" d="M429.35,97.09c-6.52,0-11.79-1.76-15.43-4.77-4.52,2.89-10.41,4.89-16.93,4.89-13.17,0-22.2-6.77-22.2-18.94,0-13.55,9.91-19.32,25.72-19.32,3.01,0,6.15.25,9.28.75v-1.51c0-4.64-3.76-6.52-11.67-6.52-7.4,0-13.67,1.76-17.69,3.39v-18.82c5.14-2.38,13.67-4.52,23.21-4.52,18.06,0,30.48,6.9,30.48,24.08v18.06c0,2.51,1.25,4.14,4.27,4.14,1,0,2.01-.13,2.89-.5v17.44c-3.14,1.25-7.28,2.13-11.92,2.13ZM409.65,80.03v-7.78c-.88-.25-2.63-.5-4.01-.5-4.14,0-6.9,1.25-6.9,4.77s2.13,4.64,5.9,4.64c2.01,0,4.01-.5,5.02-1.13Z"/>
    <path class="cls-5" d="M439.13,0h24.84v37.13l.25.13c4.64-3.39,10.54-5.52,17.06-5.52,7.15,0,12.67,2.26,16.68,6.52,4.01,4.27,5.52,9.53,5.52,18.19v39.39h-24.84v-35.5c0-3.26-.5-5.14-1.76-6.4s-3.14-1.76-5.39-1.76c-2.89,0-5.27,1-7.53,2.38v41.27h-24.84V0Z"/>
    <path class="cls-5" d="M560.43,97.09c-6.52,0-11.79-1.76-15.43-4.77-4.52,2.89-10.41,4.89-16.93,4.89-13.17,0-22.2-6.77-22.2-18.94,0-13.55,9.91-19.32,25.71-19.32,3.01,0,6.15.25,9.28.75v-1.51c0-4.64-3.76-6.52-11.67-6.52-7.4,0-13.67,1.76-17.69,3.39v-18.82c5.14-2.38,13.67-4.52,23.21-4.52,18.06,0,30.48,6.9,30.48,24.08v18.06c0,2.51,1.25,4.14,4.26,4.14,1,0,2.01-.13,2.89-.5v17.44c-3.14,1.25-7.28,2.13-11.92,2.13ZM540.74,80.03v-7.78c-.88-.25-2.63-.5-4.01-.5-4.14,0-6.9,1.25-6.9,4.77s2.13,4.64,5.9,4.64c2.01,0,4.01-.5,5.02-1.13Z"/>
    <path class="cls-5" d="M570.72,123.44l16.56-34.75-24.59-55.57h25.59l5.9,16.31c1.76,4.77,3.51,9.66,5.02,14.17h.25c1.76-4.77,3.64-9.53,5.52-14.3l6.4-16.18h23.46l-39.26,90.32h-24.84Z"/>
  </g>
  <rect class="cls-3" x="3.46" y="110.46" width="564.05" height=".68"/>
  <circle class="cls-3" cx="567.43" cy="110.45" r="3.42"/>
  <circle class="cls-3" cx="3.42" cy="111.13" r="3.42"/>
</svg>